<svg version="1.1" xmlns="http://www.w3.org/2000/svg" xmlns:xlink="http://www.w3.org/1999/xlink" x="0px" y="0px" viewBox="0 0 1000 1000" enable-background="new 0 0 1000 1000" xml:space="preserve">
<g><g transform="translate(0.000000,512.000000) scale(0.100000,-0.100000)"><path d="M4856.2,5009.1c-176.4-46-331.6-172.5-412.1-337.4c-47.9-95.8-47.9-97.8-57.5-824.3L4377,3121l-76.7-15.3c-149.5-30.7-442.8-136.1-632.6-226.2c-830-398.7-1426.1-1140.5-1658.1-2064.5l-19.2-80.5l-724.6-5.8L543.3,723L447.4,675c-122.7-61.3-237.7-176.4-297.1-297.1C83.2,238,83.2-3.5,150.3-139.6c59.4-122.7,174.4-237.7,297.1-297.1c95.8-47.9,97.8-47.9,820.4-57.5l726.5-9.6l44.1-172.5c270.3-1035.1,1132.9-1897.7,2166.1-2166.1l172.5-44.1l9.6-726.5c9.6-722.7,9.6-724.6,57.5-820.4c59.4-122.7,174.4-237.7,297.1-297.1c138-67.1,379.5-67.1,517.6,0c122.7,59.4,237.7,174.4,297.1,297.1c47.9,95.8,47.9,97.8,57.5,820.4l9.6,726.5l172.5,44.1c851.1,220.4,1610.2,858.8,1985.9,1669.6c65.2,139.9,197.5,532.9,212.8,630.6c5.7,36.4,24.9,38.3,734.2,47.9c726.5,9.6,728.4,9.6,824.3,57.5c122.7,59.4,237.7,174.5,297.1,297.1c67.1,138,67.1,379.5,0,517.6c-59.4,122.7-174.4,237.7-297.1,297.1c-95.8,47.9-97.8,47.9-824.3,57.5c-709.2,9.6-728.4,11.5-734.2,47.9c-3.8,21.1-36.4,138-72.8,258.8c-287.5,933.5-1025.5,1681.1-1962.9,1989.7c-99.7,34.5-216.6,67.1-258.8,76.7L5623,3121l-9.6,726.5c-9.6,726.5-9.6,728.4-57.5,824.3c-61.3,122.7-176.4,237.7-297.1,295.2C5155.3,5014.8,4959.7,5035.9,4856.2,5009.1z M5442.8,1903.8c343.1-88.2,611.5-243.4,860.7-498.4c247.3-249.2,406.4-532.9,492.6-876c46-182.1,46-638.3,0-820.4c-170.6-682.4-669-1188.5-1353.3-1376.3c-210.8-59.4-674.7-59.4-885.6,0c-948.9,260.7-1533.5,1155.9-1368.6,2099c67.1,381.5,233.9,701.6,515.6,983.4c276,274.1,594.2,444.7,968,515.6C4871.6,1968.9,5249.2,1955.5,5442.8,1903.8z"/></g></g>
</svg>