<svg version="1.1" xmlns="http://www.w3.org/2000/svg" xmlns:xlink="http://www.w3.org/1999/xlink" x="0px" y="0px" viewBox="0 0 1000 1000" enable-background="new 0 0 1000 1000" xml:space="preserve">
<g><path d="M500,544.5c-124,0-224.6-99.7-224.6-222.7c0-123,100.6-222.7,224.6-222.7c124,0,224.6,99.7,224.6,222.7C724.6,444.9,624,544.5,500,544.5L500,544.5z M500,10c-173.6,0-314.4,139.6-314.4,311.9c0,172.2,140.7,311.8,314.4,311.8s314.4-139.6,314.4-311.8C814.4,149.6,673.6,10,500,10L500,10z M500,544.5C251.9,544.5,50.8,744,50.8,990h89.8c0-196.8,160.9-356.3,359.3-356.3c198.4,0,359.3,159.6,359.3,356.3h89.8C949.2,744,748.1,544.5,500,544.5L500,544.5z"/></g>
</svg>